<svg width="113" height="32" viewBox="0 0 113 32" xmlns="http://www.w3.org/2000/svg"><title>blimp-log</title><g fill="#000" fill-rule="evenodd"><path d="M89.494 1.19c-3.994.548-9.006 2.434-13.623 4.745-2.01-1.023-4.258-2.1-4.877-2.126-1.185-.05-4.837 2.432-4.837 2.432l1.848 4.31c-3.424 2.383-5.672 4.632-5.494 5.936.086.628.776 1.315 1.906 2.013-.764.565-1.146 1.01-1.157 1.347 0 .38.088 1.243.342 1.305 1.11.287 3.44.257 5.74.026l-.56 4.21s4.186 1.406 5.314 1.04c.59-.192 2.474-1.843 4.137-3.373 1.464.284 2.95.523 4.42.708.19.903.472 1.912.827 2.225.337.297 3.637.874 6.96.664 3.47-.22 6.963-1.238 7.275-1.552.336-.34.425-1.49.437-2.46 8.284-2.76 15.416-8.667 14.812-13.073-.736-5.37-13.144-9.793-23.47-8.377zm-15.7 18.005c-2.27.98-8.976 1.69-10.055.92-.626-.448.728-1.467 1.974-2.243 1.49.084 3.682.003 6.112-.26 1.923-.207 3.675-.494 5.035-.803-.633.745-1.7 1.795-3.066 2.385zm12.12 6.3a1.48 1.48 0 0 1-1.652-1.745c.922.136 1.902.223 2.928.258a1.48 1.48 0 0 1-1.277 1.488zm4.512.25a1.478 1.478 0 0 1-1.656-1.723 33.87 33.87 0 0 0 2.867-.173 1.48 1.48 0 0 1-1.21 1.897zm4.8-.83a1.48 1.48 0 0 1-1.665-1.266c0-.017 0-.034-.003-.05a33.7 33.7 0 0 0 2.88-.583c.024.075.043.15.054.23a1.48 1.48 0 0 1-1.263 1.667zM86.75 7.09c-13.82 1.895-23.147 9.146-23.206 8.717-.06-.43 13.162-11.103 26.98-13 13.82-1.894 21.32 6.156 21.38 6.584.06.43-11.335-4.198-25.155-2.302zM4.424 16.8v-4.008h3.528c.336 0 .66.028.972.084.312.056.588.156.828.3s.432.344.576.6c.144.256.216.584.216.984 0 .72-.216 1.24-.648 1.56-.432.32-.984.48-1.656.48H4.424zM.656 9.864V27H8.96c.768 0 1.516-.096 2.244-.288a6 6 0 0 0 1.944-.888c.568-.4 1.02-.916 1.356-1.548.336-.632.504-1.38.504-2.244 0-1.072-.26-1.988-.78-2.748-.52-.76-1.308-1.292-2.364-1.596.768-.368 1.348-.84 1.74-1.416.392-.576.588-1.296.588-2.16 0-.8-.132-1.472-.396-2.016a3.293 3.293 0 0 0-1.116-1.308c-.48-.328-1.056-.564-1.728-.708a10.672 10.672 0 0 0-2.232-.216H.656zm3.768 14.208v-4.704h4.104c.816 0 1.472.188 1.968.564.496.376.744 1.004.744 1.884 0 .448-.076.816-.228 1.104a1.812 1.812 0 0 1-.612.684 2.59 2.59 0 0 1-.888.36 5.028 5.028 0 0 1-1.056.108H4.424zM16.588 9.864V27h3.408V9.864h-3.408zm8.9 2.808V9.864H22.08v2.808h3.408zm-3.408 1.92V27h3.408V14.592H22.08zm5.492 0V27h3.408v-7.2c0-.608.088-1.1.264-1.476.176-.376.388-.664.636-.864.248-.2.504-.336.768-.408.264-.072.476-.108.636-.108.544 0 .956.092 1.236.276.28.184.48.428.6.732s.188.636.204.996c.016.36.024.724.024 1.092V27h3.408v-6.912c0-.384.028-.764.084-1.14.056-.376.168-.712.336-1.008a2 2 0 0 1 .696-.72c.296-.184.684-.276 1.164-.276.48 0 .86.08 1.14.24.28.16.492.376.636.648.144.272.232.592.264.96s.048.76.048 1.176V27h3.408v-8.304c0-.8-.112-1.484-.336-2.052-.224-.568-.536-1.028-.936-1.38-.4-.352-.88-.608-1.44-.768a6.618 6.618 0 0 0-1.824-.24c-.864 0-1.612.208-2.244.624-.632.416-1.132.896-1.5 1.44-.336-.768-.828-1.304-1.476-1.608a4.994 4.994 0 0 0-2.148-.456c-.816 0-1.54.176-2.172.528a4.853 4.853 0 0 0-1.62 1.488h-.048v-1.68h-3.216zm27.212 10.176c-.544 0-1.008-.112-1.392-.336a2.696 2.696 0 0 1-.924-.876c-.232-.36-.4-.78-.504-1.26a6.894 6.894 0 0 1-.156-1.464c0-.512.048-1.008.144-1.488.096-.48.26-.904.492-1.272.232-.368.536-.668.912-.9.376-.232.844-.348 1.404-.348.544 0 1.004.116 1.38.348.376.232.684.536.924.912s.412.804.516 1.284c.104.48.156.968.156 1.464s-.048.984-.144 1.464c-.096.48-.26.9-.492 1.26a2.73 2.73 0 0 1-.912.876c-.376.224-.844.336-1.404.336zM48.52 14.592v16.752h3.408v-5.88h.048a4.02 4.02 0 0 0 1.596 1.38 4.83 4.83 0 0 0 2.124.468c.912 0 1.708-.176 2.388-.528a5.054 5.054 0 0 0 1.704-1.416 6.11 6.11 0 0 0 1.02-2.04 8.528 8.528 0 0 0 .336-2.4c0-.88-.112-1.724-.336-2.532a6.183 6.183 0 0 0-1.032-2.124 5.203 5.203 0 0 0-1.752-1.464c-.704-.368-1.544-.552-2.52-.552a4.86 4.86 0 0 0-2.112.456c-.64.304-1.168.792-1.584 1.464h-.048v-1.584h-3.24z"/></g></svg>
